<svg width="25" height="24" viewBox="0 0 25 24" fill="none" xmlns="http://www.w3.org/2000/svg">
<g clip-path="url(#clip0_400_5589)">
<path d="M15.2503 21.9996V18.1305C15.2503 18.1043 15.2512 18.0775 15.2533 18.0514C15.2796 17.7162 15.2343 17.3794 15.1205 17.0631C15.0065 16.7466 14.8262 16.4579 14.5921 16.2164C14.3266 15.9425 14.2406 15.5412 14.3695 15.1822C14.4985 14.8232 14.8204 14.5682 15.1996 14.526C16.7133 14.3572 18.0779 13.9995 19.0638 13.1705C19.9425 12.4316 20.6558 11.2003 20.7415 8.97812L20.7503 8.52011C20.7501 7.38063 20.3114 6.28486 19.5257 5.45957C19.262 5.1824 19.18 4.77897 19.3138 4.4205C19.6013 3.65024 19.645 2.81652 19.4515 2.02792C19.4496 2.02835 19.4476 2.02944 19.4456 2.02988C18.9579 2.13818 18.0944 2.44812 16.807 3.31113C16.5666 3.47214 16.2679 3.52061 15.9886 3.44492C13.868 2.87024 11.6326 2.87024 9.51205 3.44492C9.23277 3.52061 8.9341 3.47214 8.69369 3.31113C7.40626 2.44812 6.54278 2.13818 6.05502 2.02988C6.05275 2.02937 6.05044 2.02842 6.04818 2.02792C5.85477 2.81645 5.89943 3.65032 6.18686 4.4205C6.32063 4.77897 6.23869 5.1824 5.97494 5.45957C5.1834 6.29096 4.74428 7.39661 4.75033 8.54453V8.55039C4.7504 11.0407 5.49756 12.3807 6.43686 13.1705C7.42635 14.0025 8.79504 14.3686 10.3138 14.5572C10.6899 14.604 11.007 14.8599 11.1331 15.2174C11.2593 15.5749 11.1722 15.9733 10.9085 16.2457C10.6773 16.4847 10.4989 16.7701 10.3851 17.0826C10.2713 17.3951 10.2241 17.7284 10.2474 18.0602C10.249 18.0834 10.2503 18.1071 10.2503 18.1305V21.9996C10.2503 22.5519 9.80262 22.9996 9.25033 22.9996C8.69805 22.9996 8.25033 22.5519 8.25033 21.9996V20.2506C7.44402 20.374 6.73517 20.356 6.10092 20.2076C5.13631 19.9819 4.4468 19.486 3.9183 18.9576C3.65966 18.699 3.43702 18.4293 3.24447 18.1881C3.03962 17.9315 2.88922 17.7338 2.72299 17.5387C2.4359 17.2017 2.2443 17.0541 2.07748 16.9918L2.00815 16.9703L1.90951 16.94C1.43298 16.7679 1.15507 16.2596 1.28061 15.7574C1.4146 15.2218 1.95689 14.8962 2.49252 15.0299C3.30839 15.2338 3.85573 15.7831 4.24643 16.2418C4.43956 16.4685 4.64076 16.7328 4.80697 16.941C4.98541 17.1645 5.15362 17.3638 5.33236 17.5426C5.67874 17.8889 6.05223 18.1424 6.556 18.2603C6.95625 18.354 7.49837 18.3744 8.25033 18.2213V18.1305C8.21836 17.5417 8.30423 16.9525 8.50619 16.398C8.52038 16.3591 8.53584 16.3203 8.55111 16.2818C7.36369 16.0112 6.15716 15.5497 5.14877 14.7018C3.7468 13.5228 2.86586 11.7223 2.76108 9.08847L2.75033 8.55039C2.74369 7.08978 3.23306 5.67623 4.12924 4.53769C3.7879 3.23679 3.88686 1.85281 4.42123 0.60605L4.47006 0.50644C4.59694 0.282697 4.80668 0.115561 5.056 0.0415967L5.34018 0.999604C5.05594 0.0413224 5.05698 0.0409068 5.05795 0.0406201H5.0599C5.06123 0.0402336 5.06245 0.0390589 5.06381 0.038667C5.06653 0.0378832 5.06972 0.0375174 5.0726 0.0367138C5.07818 0.0351576 5.08401 0.0334465 5.09018 0.031831C5.10287 0.0285088 5.11702 0.0245359 5.13217 0.0210888C5.16264 0.0141611 5.19829 0.0070164 5.23861 0.000581026C5.31942 -0.0123062 5.41971 -0.0224726 5.5394 -0.0257862C5.7797 -0.0324001 6.09534 -0.00957938 6.48861 0.0777295C7.20286 0.236343 8.17045 0.608587 9.42612 1.40292C11.6114 0.883713 13.8883 0.883859 16.0736 1.40292C17.3296 0.608283 18.2977 0.236372 19.0121 0.0777295C19.4053 -0.00957938 19.721 -0.0324001 19.9613 -0.0257862C20.081 -0.0224726 20.1812 -0.0123062 20.2621 0.000581026C20.3024 0.0070164 20.338 0.0141611 20.3685 0.0210888C20.3836 0.0245359 20.3978 0.0285088 20.4105 0.031831C20.4167 0.0334465 20.4225 0.0351576 20.4281 0.0367138C20.4309 0.0375174 20.4341 0.0378832 20.4369 0.038667C20.4382 0.0390589 20.4394 0.0402336 20.4408 0.0406201H20.4427C20.4436 0.0408941 20.4446 0.0412784 20.1966 0.877534L20.4447 0.0415967C20.7297 0.126142 20.9623 0.332832 21.0794 0.60605C21.6138 1.85288 21.7119 3.23672 21.3705 4.53769C22.2604 5.66813 22.7501 7.0698 22.7503 8.52011L22.7396 9.06113C22.6351 11.7103 21.7558 13.5211 20.3519 14.7018C19.345 15.5484 18.1414 16.005 16.9554 16.2662C16.971 16.3058 16.9879 16.3453 17.0023 16.3853C17.2054 16.9495 17.2889 17.5491 17.2503 18.1471V21.9996C17.2503 22.5519 16.8026 22.9996 16.2503 22.9996C15.698 22.9996 15.2503 22.5519 15.2503 21.9996Z" fill="black"/>
</g>
<defs>
<clipPath id="clip0_400_5589">
<rect width="24" height="24" fill="white" transform="translate(0.250244)"/>
</clipPath>
</defs>
</svg>
