<svg width="24" height="25" viewBox="0 0 24 25" fill="none" xmlns="http://www.w3.org/2000/svg">
<path d="M6 8.4967C6.55228 8.4967 7 8.94442 7 9.4967V21.4967C7 22.049 6.55228 22.4967 6 22.4967H2C1.44772 22.4967 1 22.049 1 21.4967V9.4967C1 8.94442 1.44772 8.4967 2 8.4967H6ZM21 14.4967C21 13.1706 20.4728 11.8992 19.5352 10.9615C18.5975 10.0239 17.3261 9.4967 16 9.4967C14.6739 9.4967 13.4025 10.0239 12.4648 10.9615C11.5272 11.8992 11 13.1706 11 14.4967V20.4967H13V14.4967C13 13.7011 13.3163 12.9382 13.8789 12.3756C14.4415 11.813 15.2043 11.4967 16 11.4967C16.7957 11.4967 17.5585 11.813 18.1211 12.3756C18.6837 12.9382 19 13.7011 19 14.4967V20.4967H21V14.4967ZM3 20.4967H5V10.4967H3V20.4967ZM5 4.4967C5 3.94442 4.55228 3.4967 4 3.4967C3.44772 3.4967 3 3.94442 3 4.4967C3 5.04899 3.44772 5.4967 4 5.4967C4.55228 5.4967 5 5.04899 5 4.4967ZM23 21.4967C23 22.049 22.5523 22.4967 22 22.4967H18C17.4477 22.4967 17 22.049 17 21.4967V14.4967C17 14.2315 16.8946 13.9772 16.707 13.7897C16.5195 13.6021 16.2652 13.4967 16 13.4967C15.7348 13.4967 15.4805 13.6021 15.293 13.7897C15.1054 13.9772 15 14.2315 15 14.4967V21.4967C15 22.049 14.5523 22.4967 14 22.4967H10C9.44772 22.4967 9 22.049 9 21.4967V14.4967C9 12.6402 9.73705 10.8593 11.0498 9.54651C12.3626 8.23375 14.1435 7.4967 16 7.4967C17.8565 7.4967 19.6374 8.23375 20.9502 9.54651C22.263 10.8593 23 12.6402 23 14.4967V21.4967ZM7 4.4967C7 6.15356 5.65685 7.4967 4 7.4967C2.34315 7.4967 1 6.15356 1 4.4967C1 2.83985 2.34315 1.4967 4 1.4967C5.65685 1.4967 7 2.83985 7 4.4967Z" fill="black"/>
</svg>
