<svg width="24" height="25" viewBox="0 0 24 25" fill="none" xmlns="http://www.w3.org/2000/svg">
<path d="M21 8.41663L12.5732 14.316C12.229 14.5569 11.771 14.5569 11.4268 14.316L3 8.41663V18.4967C3 19.0444 3.45228 19.4967 4 19.4967H20C20.5477 19.4967 21 19.0444 21 18.4967V8.41663ZM4 5.4967C3.61194 5.4967 3.27276 5.72423 3.10742 6.05139L12 12.276L20.8916 6.05139C20.7262 5.72444 20.3879 5.4967 20 5.4967H4ZM23 18.4967C23 20.149 21.6523 21.4967 20 21.4967H4C2.34772 21.4967 1 20.149 1 18.4967V6.4967C1 4.84442 2.34772 3.4967 4 3.4967H20C21.6523 3.4967 23 4.84442 23 6.4967V18.4967Z" fill="black"/>
</svg>
